<svg width="512" height="512" viewBox="0 0 512 512" fill="none" xmlns="http://www.w3.org/2000/svg">
  <rect width="512" height="512" rx="112" fill="#09090B"/>
  <path d="M104 159C104 119.236 136.236 87 176 87H336C375.764 87 408 119.236 408 159V271C408 310.764 375.764 343 336 343H276L211.4 416.06C198.622 430.51 175 421.474 175 402.179V343C135.236 343 104 310.764 104 271V159Z" fill="#B6FF3B"/>
  <path d="M250 116L226 190H269L239 300" stroke="#09090B" stroke-width="25" stroke-linecap="round" stroke-linejoin="round"/>
  <path d="M282 130L254 210H303L266 326" stroke="#7C3AED" stroke-width="22" stroke-linecap="round" stroke-linejoin="round"/>
  <path d="M322 172L350 146" stroke="#7C3AED" stroke-width="14" stroke-linecap="round"/>
  <path d="M199 239L171 260" stroke="#09090B" stroke-width="14" stroke-linecap="round"/>
</svg>
